<svg xmlns="http://www.w3.org/2000/svg" width="24" height="24" fill="currentColor" class="bi bi-mortarboard-fill" viewBox="0 0 16 16">
  <path d="M8.211 2.047a.5.5 0 0 0-.422 0l-7.5 3.5a.5.5 0 0 0 .025.917l7.5 3a.5.5 0 0 0 .372 0L14 7.14V13a1 1 0 0 0-1 1v2h3v-2a1 1 0 0 0-1-1V6.739l.686-.274a.5.5 0 0 0 .025-.917l-7.5-3.5Z"/>
  <path d="M4.176 9.032a.5.5 0 0 0-.656.327 3 3 0 0 0-.154.528c-.147.618-.04 1.247.28 1.597.297.327.704.51 1.154.51s.857-.183 1.154-.51c.32-.35.427-.979.28-1.597a3 3 0 0 0-.154-.528.5.5 0 0 0-.983.189c.045.234.08.43.107.542.062.261.034.423-.004.464-.038.041-.122.103-.399.103s-.361-.062-.399-.103c-.038-.041-.066-.203-.004-.464.027-.112.062-.308.107-.542a.5.5 0 0 0-.327-.656Z"/>
</svg>