<?xml version="1.0" encoding="UTF-8" standalone="no"?>
<svg
   width="336.74518"
   height="94.846352"
   viewBox="0 0 336.74518 94.846352"
   version="1.1"
   id="svg6"
   xmlns="http://www.w3.org/2000/svg"
   xmlns:svg="http://www.w3.org/2000/svg">
  <defs
     id="defs6" />
  <g
     id="text6"
     style="font-style:italic;font-size:64px;font-family:Arial;-inkscape-font-specification:'Arial Italic';text-align:center;text-anchor:middle;stroke:#000000"
     aria-label="LEK NRW"
     transform="translate(-6.0035195,-2.5401077)">
    <path
       style="font-style:normal;font-family:'Segoe Script';-inkscape-font-specification:'Segoe Script, Normal';fill:#00b050"
       d="m 41.967102,50.133858 q -0.625,0.78125 -1.59375,1.28125 -0.96875,0.46875 -1.71875,0.46875 -0.4375,0 -1.09375,0.03125 -0.65625,0 -1.375,0.03125 -0.6875,0 -1.34375,0.03125 -0.65625,0 -1.09375,0 -2,0 -4.1875,0.34375 -2.15625,0.3125 -4.3125,0.84375 -2.15625,0.5 -4.28125,1.0625 -2.09375,0.59375 -3.96875,1.09375 -1.875,0.53125 -3.5,0.84375 -1.59375,0.34375 -2.75,0.34375 -1.8749999,0 -2.9374999,-0.875 -1.03125,-0.84375 -1.09375,-2.03125 -0.0625,-0.75 0,-1.78125 0.0625,-1.03125 0.25,-2.25 0.1875,-1.21875 0.4375,-2.5625 0.25,-1.375 0.5625,-2.78125 0.1875,-0.9375 0.46875,-2.4375 0.3125,-1.5 0.59375,-3.125 0.28125,-1.65625 0.53125,-3.1875 0.25,-1.5625 0.40625,-2.5625 0.3437499,-2.28125 0.6249999,-4.09375 0.3125,-1.84375 0.5625,-3.53125 0.28125,-1.6875 0.53125,-3.40625 0.25,-1.75 0.46875,-3.90625 0.1875,-2.34375 0.25,-4.1875 0.09375,-1.84375 0.40625,-3.09375 0.34375,-1.2812503 1.0625,-1.9375003 0.75,-0.6875 2.28125,-0.6875 0.875,0 1.4375,0.34375 0.59375,0.34375 0.96875,0.90625 0.375,0.5625 0.5625,1.2812503 0.1875,0.71875 0.25,1.4375 0.03125,0.21875 -0.21875,1.40625 -0.21875,1.1875 -0.59375,2.96875 -0.375,1.75 -0.84375,3.90625 -0.46875,2.15625 -0.9375,4.375 -0.4375,2.21875 -0.84375,4.3125 -0.375,2.0625 -0.59375,3.625 -0.1875,1.375 -0.46875,2.96875 -0.25,1.5625 -0.53125,3.1875 -0.28125,1.59375 -0.5625,3.1875 -0.28125,1.59375 -0.5,3 -0.21875,1.375 -0.34375,2.5 -0.09375,1.09375 -0.03125,1.75 0.0625,0.5625 0.46875,1.03125 0.40625,0.46875 1.09375,0.46875 0.75,0 1.875,-0.1875 1.15625,-0.21875 2.4375,-0.53125 1.3125,-0.34375 2.65625,-0.71875 1.34375,-0.40625 2.5625,-0.75 0.28125,-0.09375 1.0625,-0.25 0.8125,-0.1875 1.84375,-0.40625 1.0625,-0.21875 2.25,-0.4375 1.1875,-0.21875 2.21875,-0.40625 1.0625,-0.1875 1.875,-0.3125 0.8125,-0.125 1.125,-0.125 0.40625,0 1.125,-0.09375 0.75,-0.09375 1.6875,-0.15625 0.9375,-0.0625 2.03125,-0.0625 1.09375,0 2.1875,0.21875 0.5625,0.125 0.84375,0.5625 0.28125,0.40625 0.3125,0.96875 0.03125,0.5625 -0.125,1.125 -0.15625,0.5625 -0.46875,0.96875 z"
       id="path1" />
    <path
       style="font-style:normal;font-family:'Segoe Script';-inkscape-font-specification:'Segoe Script, Normal';fill:#ffffff"
       d="m 92.904602,9.4151077 q 0,0.28125 -0.15625,0.6875003 -0.125,0.40625 -0.34375,0.84375 -0.1875,0.40625 -0.46875,0.78125 -0.25,0.34375 -0.53125,0.46875 -0.875,0.40625 -1.59375,0.625 -0.6875,0.1875 -1.65625,0.375 -2.96875,0.5625 -5.8125,0.96875 -2.8125,0.375 -5.34375,0.625 -2.5,0.21875 -4.59375,0.3125 -2.09375,0.09375 -3.5625,0.09375 -0.8125,0 -1.4375,0 -0.59375,0 -1.15625,0.03125 -0.5625,0 -1.09375,0.03125 -0.53125,0 -1.125,0 -1.40625,0 -2.4375,-0.03125 -1,-0.03125 -1.71875,-0.09375 -0.46875,1.09375 -0.65625,2.6875 -0.1875,1.59375 -0.28125,3.3125 -0.09375,1.6875 -0.15625,3.3125 -0.03125,1.625 -0.1875,2.84375 0.625,0.4375 1.0625,0.6875 0.46875,0.21875 0.90625,0.34375 0.46875,0.09375 0.96875,0.125 0.5,0 1.21875,0 0.78125,0 1.71875,0 0.96875,0 1.90625,-0.03125 0.96875,-0.0625 1.875,-0.125 0.90625,-0.09375 1.625,-0.28125 1.21875,-0.3125 2.15625,-0.34375 0.9375,-0.03125 1.8125,-0.03125 0.90625,0 1.8125,-0.09375 0.90625,-0.125 2.03125,-0.5625 0.8125,-0.3125 1.46875,-0.59375 0.65625,-0.28125 1.25,-0.46875 0.59375,-0.1875 1.125,-0.28125 0.5625,-0.125 1.1875,-0.125 0.5,0 0.84375,0.375 0.34375,0.34375 0.53125,0.90625 0.1875,0.53125 0.25,1.21875 0.09375,0.65625 0.09375,1.28125 0,0.6875 -0.5,1.15625 -0.5,0.46875 -1.1875,0.78125 -0.65625,0.3125 -1.34375,0.5 -0.6875,0.1875 -1.09375,0.28125 -0.71875,0.15625 -1.90625,0.25 -1.15625,0.09375 -2.4375,0.1875 -1.28125,0.0625 -2.5,0.125 -1.1875,0.03125 -1.96875,0.125 -2.15625,0.25 -4.5,0.375 -2.34375,0.09375 -4.75,0.09375 -1.21875,0 -2.09375,0.15625 -0.84375,0.15625 -1.90625,0.46875 -0.21875,0.0625 -0.46875,0.84375 -0.25,0.75 -0.53125,1.90625 -0.28125,1.15625 -0.59375,2.53125 -0.28125,1.375 -0.5625,2.625 -0.4375,1.90625 -0.65625,3.46875 -0.1875,1.5625 -0.25,2.21875 0.1875,0.1875 0.46875,0.40625 0.28125,0.21875 0.625,0.21875 0.8125,0 1.9375,0 1.15625,-0.03125 2.375,-0.0625 1.21875,-0.03125 2.375,-0.0625 1.15625,-0.0625 2,-0.125 2.0625,-0.1875 4.3125,-0.375 2.25,-0.21875 4.375,-0.46875 2.125,-0.25 4,-0.53125 1.90625,-0.3125 3.28125,-0.6875 -0.03125,0 0.40625,-0.125 0.46875,-0.125 1.1875,-0.3125 0.71875,-0.21875 1.5625,-0.4375 0.84375,-0.25 1.5625,-0.4375 0.71875,-0.1875 1.1875,-0.3125 0.5,-0.15625 0.46875,-0.15625 0.46875,0 0.90625,0.25 0.4375,0.25 0.78125,0.6875 0.34375,0.40625 0.53125,0.96875 0.21875,0.5625 0.21875,1.21875 0,0.25 -0.25,0.71875 -0.25,0.4375 -0.6875,0.90625 -0.4375,0.46875 -1.03125,0.875 -0.5625,0.40625 -1.25,0.53125 -1.5625,0.28125 -2.96875,0.53125 -1.375,0.21875 -2.84375,0.40625 -1.4375,0.1875 -3.0625,0.375 -1.625,0.15625 -3.625,0.34375 -2.40625,0.25 -4.84375,0.53125 -2.40625,0.25 -4.53125,0.53125 -2.09375,0.28125 -3.75,0.53125 -1.625,0.21875 -2.40625,0.375 -0.71875,0.15625 -1.59375,0.375 -0.875,0.25 -1.75,0.46875 -0.84375,0.21875 -1.59375,0.375 -0.75,0.1875 -1.21875,0.1875 -0.84375,0 -1.5,-0.25 -0.65625,-0.21875 -1.09375,-0.8125 -0.4375,-0.59375 -0.65625,-1.59375 -0.21875,-1 -0.21875,-2.53125 0,-1.34375 0.375,-2.96875 0.375,-1.65625 0.90625,-4.03125 0.34375,-1.9375 0.78125,-3.84375 0.4375,-1.9375 0.8125,-3.84375 0.40625,-1.9375 0.65625,-3.84375 0.28125,-1.9375 0.3125,-3.90625 0.03125,-1.40625 0.1875,-2.84375 0.1875,-1.4375 0.34375,-2.90625 0.1875,-1.46875 0.3125,-2.9375 0.15625,-1.46875 0.15625,-2.875 0,-0.25 -0.0625,-0.6875 -0.0625,-0.4375 -0.0625,-0.65625 0,-1.34375 0.96875,-2.96875 0.25,-0.40625 0.8125,-0.84375 0.59375,-0.4375 1.28125,-0.7812503 0.71875,-0.375 1.40625,-0.59375 0.6875,-0.21875 1.1875,-0.21875 0.3125,0 1.0625,0.125 0.78125,0.125 1.625,0.3125 0.84375,0.15625 1.59375,0.28125 0.78125,0.1250003 1.09375,0.1250003 0.53125,0 1.40625,0.03125 0.90625,0 1.9375,0.03125 1.0625,0 2.21875,0 1.15625,0 2.1875,-0.0625 2.375,-0.1250003 4.5,-0.2812503 2.15625,-0.15625 4.5,-0.5625 1.40625,-0.21875 2.59375,-0.59375 1.1875,-0.375 2.28125,-0.6875 1.09375,-0.34375 2.15625,-0.59375 1.09375,-0.25 2.21875,-0.25 0.40625,0 0.8125,0.21875 0.40625,0.1875 0.71875,0.53125 0.34375,0.3125 0.53125,0.75 0.21875,0.4375 0.21875,0.875 z"
       id="path2" />
    <path
       style="font-style:normal;font-family:'Segoe Script';-inkscape-font-specification:'Segoe Script, Normal';fill:#ff0000"
       d="m 141.2171,45.415108 q 0,0.5625 -0.46875,1.1875 -0.46875,0.625 -1.15625,1.15625 -0.65625,0.53125 -1.375,0.875 -0.71875,0.34375 -1.21875,0.34375 -1.78125,0 -5.5625,-1.3125 -1.875,-0.65625 -3.78125,-1.40625 -1.875,-0.75 -3.78125,-1.5625 -1.90625,-0.84375 -3.5,-1.59375 -1.59375,-0.75 -2.90625,-1.40625 -3.84375,-1.9375 -10.5,-2.875 -0.59375,0.375 -0.96875,1 -0.375,0.625 -0.59375,1.46875 -0.1875,0.84375 -0.28125,1.875 -0.0625,1 -0.0625,2.125 0,1.46875 0.25,2.5625 0.25,1.09375 0.78125,2.21875 1.09375,2.28125 1.09375,3.15625 0,1 -1.15625,1.65625 -1.125,0.65625 -2.5,1.03125 -2.5,-1.40625 -3.28125,-4.03125 -0.812498,-2.6875 -0.812498,-6.03125 0,-3.125 0.09375,-6.25 0.125,-3.125 0.21875,-5.6875 0.09375,-2.5625 0.21875,-5.65625 0.156248,-3.125 0.281248,-7.25 0.0312,-0.75 0.0625,-1.84375 0.0312,-1.09375 0.0937,-2.53125 0.0625,-1.46875 0.0937,-2.53125 0.0312,-1.0625 0.0312,-1.78125 0,-0.15625 -0.0312,-0.4375 -0.0312,-0.3125 -0.0937,-0.65625 -0.0312,-0.34375 -0.0625,-0.625 -0.0312,-0.3125 -0.0312,-0.46875 0,-1.0937503 0.84375,-1.9062503 0.875,-0.84375 1.90625,-0.84375 0.875,0 2.03125,0.59375 1.1875,0.5625 1.1875,1.40625 0,0.40625 -0.125,1.0312503 -0.0937,0.59375 -0.1875,1.0625 -0.15625,1.15625 -0.25,2.40625 -0.0937,1.25 -0.15625,2.65625 -0.15625,3.28125 -0.28125,7 -0.125,3.6875 -0.21875,7.96875 0,0.78125 0.15625,1 0.15625,0.21875 0.6875,0.21875 0.8125,0 1.875,-0.65625 1.0625,-0.65625 2.15625,-1.3125 5.46875,-3.3125 10.6875,-9.28125 1.6875,-2 2.875,-3.46875 1.21875,-1.5 2.34375,-2.84375 0.5625,-0.6875 1.21875,-1.40625 0.65625,-0.75 1.34375,-1.4375 0.6875,-0.71875 1.34375,-1.34375 0.65625,-0.65625 1.21875,-1.1562503 0.1875,-0.15625 0.5,-0.4375 0.3125,-0.28125 0.65625,-0.53125 0.375,-0.28125 0.6875,-0.46875 0.34375,-0.21875 0.59375,-0.21875 0.3125,0 0.75,0.34375 0.4375,0.34375 0.8125,0.8125 0.40625,0.46875 0.65625,1.0000003 0.28125,0.5 0.28125,0.84375 0,0.375 -0.40625,1.1875 l -0.5625,1.125 q -0.25,0.46875 -0.34375,0.8125 -0.0937,0.34375 -0.21875,0.59375 -0.125,0.25 -0.34375,0.5 -0.21875,0.21875 -0.6875,0.4375 -0.28125,0.1875 -0.71875,0.34375 -0.4375,0.15625 -0.875,0.34375 -0.4375,0.1875 -0.8125,0.40625 -0.34375,0.21875 -0.46875,0.53125 -1.0625,1.6875 -1.8125,2.8125 -0.75,1.09375 -1.1875,1.65625 -1.9375,2.4375 -4.40625,4.71875 -1.1875,1.125 -2.375,2.125 -1.15625,0.96875 -2.25,1.8125 -1.09375,0.8125 -2.5,1.875 -1.40625,1.03125 -3.1875,2.28125 3.5625,1.6875 7.90625,3.46875 4.34375,1.75 9.25,3.625 0.3125,0.09375 0.75,0.28125 0.4375,0.15625 0.875,0.34375 0.4375,0.1875 0.84375,0.375 0.4375,0.15625 0.71875,0.25 0.625,0.15625 1.28125,0.28125 0.6875,0.125 1.46875,0.125 0.375,0 0.9375,-0.03125 0.5625,-0.0625 1.1875,-0.15625 0.65625,-0.09375 1.3125,-0.1875 0.6875,-0.09375 1.3125,-0.1875 0.625,1 0.625,2.5 z"
       id="path3" />
    <path
       style="font-style:normal;font-family:'Segoe Script';-inkscape-font-specification:'Segoe Script, Normal';fill:#00b04f"
       d="m 174.18585,44.602608 q 0.375,-1.46875 0.875,-3.6875 0.53125,-2.25 1.0625,-4.875 0.5625,-2.625 1.125,-5.46875 0.5625,-2.875 1.03125,-5.5625 0.46875,-2.6875 0.8125,-5.03125 0.34375,-2.34375 0.46875,-4 0.0312,-0.65625 -0.0312,-1.375 -0.0312,-0.75 0.0625,-1.4375 0.0937,-0.71875 0.4375,-1.34375 0.34375,-0.65625 1.21875,-1.09375 1.0625,-0.53125 1.9375,-0.46875 0.875,0.0625 1.90625,0.625 0.21875,0.125 0.4375,0.6875 0.21875,0.5625 0.40625,1.3125 0.21875,0.75 0.375,1.59375 0.1875,0.8125 0.34375,1.40625 0.375,1.4375 1.3125,3.59375 0.96875,2.15625 2.375,4.75 1.40625,2.5625 3.15625,5.46875 1.78125,2.875 3.71875,5.78125 1.96875,2.875 4,5.625 2.0625,2.75 4.0625,5.09375 0.84375,-3.25 1.46875,-6.1875 0.625,-2.9375 1.125,-5.75 0.53125,-2.84375 1,-5.625 0.46875,-2.8125 0.9375,-5.8125 0.25,-1.53125 0.53125,-3.40625 0.28125,-1.90625 0.53125,-3.8125 0.25,-1.9375 0.40625,-3.71875 0.1875,-1.8125 0.21875,-3.1250003 0,-0.53125 0,-1.0625 0,-0.53125 0.0312,-1 0.0625,-0.5 0.21875,-0.9375 0.1875,-0.46875 0.5625,-0.8125 1,-0.90625 1.8125,-1.09375 0.8125,-0.1875 1.71875,-0.1875 0.4375,0 0.8125,0.5 0.375,0.5 0.65625,1.1875 0.28125,0.6875 0.4375,1.4375 0.1875,0.71875 0.21875,1.15625 0.0312,0.40625 -0.125,1.3125 -0.15625,0.8750003 -0.40625,1.9062503 -0.21875,1.03125 -0.46875,2.03125 -0.25,1 -0.40625,1.5625 -0.71875,2.84375 -1.46875,6.28125 -0.71875,3.40625 -1.40625,6.90625 -0.65625,3.5 -1.25,6.84375 -0.59375,3.34375 -1.03125,6.03125 -0.4375,2.6875 -0.6875,4.46875 -0.21875,1.75 -0.1875,2.09375 0.0312,0.46875 0.0312,1.0625 0.0312,0.59375 0.0312,1.1875 0,0.5625 0,1.09375 0,0.5 0.0312,0.78125 0.0625,0.75 -0.15625,1.3125 -0.1875,0.53125 -0.53125,0.90625 -0.3125,0.375 -0.71875,0.59375 -0.40625,0.25 -0.75,0.375 -0.40625,0.125 -0.9375,0.21875 -0.53125,0.09375 -1.0625,0.09375 -0.5,0 -0.96875,-0.09375 -0.4375,-0.0625 -0.65625,-0.3125 -1.1875,-1.125 -2,-2.15625 -0.78125,-1.0625 -1.03125,-2.0625 -0.0625,-0.3125 -0.3125,-0.75 -0.25,-0.46875 -0.5625,-0.90625 -0.28125,-0.46875 -0.5625,-0.84375 -0.28125,-0.40625 -0.46875,-0.625 -2.03125,-2.625 -4,-5.3125 -1.96875,-2.6875 -3.96875,-5.71875 -1.96875,-3.03125 -4,-6.5 -2.03125,-3.46875 -4.21875,-7.59375 -0.875,3.125 -1.5625,6.65625 -0.6875,3.53125 -1.25,6.9375 -0.5625,3.40625 -1,6.46875 -0.4375,3.03125 -0.75,5.1875 -0.0937,0.625 -0.0937,1.5625 0,0.90625 0,1.84375 0,0.9375 -0.0625,1.78125 -0.0625,0.8125 -0.25,1.28125 -0.15625,0.34375 -0.5,0.8125 -0.3125,0.46875 -0.75,0.90625 -0.40625,0.4375 -0.90625,0.71875 -0.46875,0.3125 -0.9375,0.3125 -0.90625,0 -1.4375,-0.28125 -0.5,-0.28125 -0.78125,-0.84375 -0.28125,-0.53125 -0.40625,-1.34375 -0.125,-0.8125 -0.21875,-1.875 -0.0312,-0.40625 0.0625,-1.28125 0.125,-0.90625 0.3125,-1.96875 0.21875,-1.09375 0.46875,-2.25 0.25,-1.15625 0.53125,-2.15625 z"
       id="path4" />
    <path
       style="font-style:normal;font-family:'Segoe Script';-inkscape-font-specification:'Segoe Script, Normal';fill:#ffffff"
       d="m 277.99835,52.758858 q -0.0312,1.25 -1.3125,1.90625 -1.28125,0.65625 -2.59375,0.65625 -1.71875,0 -3.46875,-0.78125 -1.71875,-0.75 -3.78125,-2.09375 -1.09375,-0.71875 -2.6875,-1.875 -1.59375,-1.1875 -3.75,-2.875 -0.53125,-0.40625 -2.0625,-1.59375 -1.53125,-1.1875 -4.0625,-3.1875 -5.0625,-3.96875 -5.71875,-4.21875 -1.03125,-0.34375 -3.28125,-0.34375 -0.46875,0 -1.53125,0.0625 -1.03125,0.03125 -2.6875,0.15625 -1.15625,-0.78125 -1.15625,-2.84375 0,-1.75 1.21875,-2.09375 0.15625,-0.03125 0.5,-0.0625 0.375,-0.0625 0.84375,-0.09375 0.46875,-0.0625 1,-0.09375 0.5625,-0.0625 1.125,-0.125 4.1875,-0.65625 7.40625,-2.3125 1.15625,-0.59375 2.28125,-1.25 1.125,-0.6875 2.28125,-1.4375 2.28125,-1.53125 4.0625,-3.40625 1.8125,-1.84375 1.8125,-3.625 0.0312,-1.3125 -0.78125,-2.5 -0.78125,-1.21875 -2.03125,-2.1875 -1.21875,-0.96875 -2.6875,-1.65625 -1.46875,-0.71875 -2.75,-1.09375 -2.3125,-0.65625 -4.75,-0.65625 -0.71875,0 -1.71875,0.0625 -0.96875,0.0625 -2.21875,0.1875 -1.21875,0.125 -2.3125,0.25 -1.0625,0.125 -1.96875,0.28125 -0.90625,0.15625 -1.96875,0.34375 -1.03125,0.1875 -2.21875,0.4375 0.71875,1.15625 1.25,3.625 0.53125,2.46875 0.53125,4.03125 0,0.9375 -0.0625,1.8125 -0.0312,0.875 -0.0937,1.6875 -0.0625,0.8125 -0.1875,1.65625 -0.0937,0.84375 -0.25,1.71875 -0.28125,1.75 -0.75,4.40625 -0.8125,4.625 -1.125,7.25 -0.15625,1.34375 -0.25,2.59375 -0.0937,1.25 -0.0937,2.4375 0,2.125 0.375,3.8125 0.375,1.65625 1.4375,3.34375 -0.4375,0.65625 -1.25,1.125 -0.8125,0.5 -1.5625,0.5 -2.09375,0 -3.0625,-0.84375 -1,-0.90625 -1.21875,-2.21875 -0.21875,-1.28125 -0.21875,-3.8125 0,-1.59375 0.1875,-3.34375 0.1875,-1.75 0.4375,-3.1875 0.25,-1.46875 0.53125,-3.0625 0.15625,-0.71875 0.3125,-1.75 0.15625,-1.0625 0.375,-2.4375 0.4375,-2.75 0.6875,-5.28125 0.28125,-2.53125 0.28125,-4.53125 0,-1.90625 -0.125,-3.9375 -0.125,-2.03125 -0.375,-4.25 -3.4375,1 -3.84375,1 -0.96875,0 -1.28125,-0.59375 -0.3125,-0.59375 -0.3125,-1.625 0,-1.1875 2.21875,-2.28125 1.125,-0.53125 2.21875,-0.96875 1.125,-0.4375 2.21875,-0.78125 2.53125,-0.8125003 6.6875,-1.4062503 4.15625,-0.65625 6.9375,-0.65625 4.75,0 9.21875,1.125 4.40625,1.0625003 7.53125,3.9062503 3.09375,2.8125 3.09375,7.53125 0,3 -2.25,5.8125 -2.25,2.78125 -5.3125,4.84375 -3.03125,2.0625 -6.59375,3.9375 2.0625,1.40625 5.625,3.9375 1.78125,1.25 3.34375,2.34375 1.5625,1.09375 2.90625,2.0625 1.375,0.9375 3.03125,2.09375 1.65625,1.125 3.65625,2.46875 2,1.34375 3.5,2.34375 1.53125,0.96875 2.59375,1.625 z"
       id="path5" />
    <path
       style="font-style:normal;font-family:'Segoe Script';-inkscape-font-specification:'Segoe Script, Normal';fill:#ff0000"
       d="m 341.43585,6.4151077 q 0,1.6875 -0.40625,4.5312503 -0.40625,2.8125 -1.15625,6.40625 -0.71875,3.5625 -1.53125,6.625 -0.8125,3.0625 -1.59375,5.3125 -1.5,4.5625 -2.90625,7.875 -0.6875,1.6875 -1.5625,3.65625 -0.84375,1.9375 -1.875,4.21875 -1.03125,2.28125 -1.84375,4.125 -0.8125,1.84375 -1.40625,3.28125 -0.25,0.59375 -1.15625,1 -0.90625,0.40625 -1.40625,0.40625 -1.5,0 -2.75,-1.46875 -1.25,-1.46875 -2.40625,-3.90625 -0.59375,-1.1875 -1.5625,-3.375 -0.9375,-2.1875 -2.3125,-5.40625 -1.375,-3.21875 -2.53125,-5.84375 -1.15625,-2.625 -2.125,-4.71875 -1,1.46875 -3.65625,6.46875 -1.3125,2.53125 -2.59375,4.96875 -1.28125,2.40625 -2.53125,4.78125 -2.5,4.75 -4.59375,8.15625 -2.0625,3.40625 -2.75,3.40625 -1.5,0 -2.59375,-1.28125 -1.0625,-1.28125 -1.84375,-3.25 -0.40625,-1 -0.84375,-2.375 -0.40625,-1.375 -0.875,-3.15625 -0.46875,-1.78125 -0.71875,-2.75 -0.25,-0.96875 -0.3125,-1.125 -1.1875,-4.5625 -2.46875,-10.0625 -1.28125,-5.5 -2.625,-12.09375 -0.0937,-0.4375 -0.375,-1.4375 -0.28125,-1 -0.71875,-2.625 -0.90625,-3.28125 -0.90625,-4.625 0,-0.84375 0.75,-1.65625 0.75,-0.7812503 1.5,-0.7812503 0.71875,0 1.875,1.8125003 1.15625,1.75 1.90625,4.25 0.25,0.84375 0.59375,2.21875 0.34375,1.375 0.8125,3.40625 0.5,2 1.125,4.6875 0.625,2.65625 1.4375,6.09375 0.78125,3.4375 1.40625,6.125 0.65625,2.6875 1.15625,4.71875 0.53125,2 0.9375,3.40625 0.40625,1.40625 0.71875,2.25 2.375,-4 4.125,-6.96875 1.75,-3 2.90625,-5 1.15625,-2.03125 1.96875,-3.59375 0.84375,-1.59375 1.375,-2.75 0.53125,-1.1875 1.46875,-3.28125 0.9375,-2.125 2.28125,-5.21875 0.125,-0.28125 0.375,-0.5625 0.28125,-0.3125 0.59375,-0.53125 0.34375,-0.25 0.71875,-0.40625 0.375,-0.15625 0.75,-0.15625 1.125,0 2.78125,3.625 0.8125,1.8125 2.125,4.90625 1.34375,3.09375 3.21875,7.5 3.71875,8.84375 4.875,10.34375 2.90625,-4.90625 5.125,-10.4375 2.21875,-5.53125 3.8125,-11.3125 1.59375,-5.78125 2.40625,-10.71875 0.8125,-4.9375003 1,-9.0937503 0,-0.40625 0.78125,-1.1875 0.78125,-0.78125 1.40625,-0.78125 1.46875,0 2.03125,1.15625 0.59375,1.09375 0.59375,2.21875 z"
       id="path6" />
  </g>
  <path
     style="font-size:32px;font-family:Verdana;-inkscape-font-specification:'Verdana, Normal';text-align:center;text-anchor:middle;white-space:pre;inline-size:959.579;stroke:#000000;stroke-width:0.732403"
     d="M 11.540121,78.762186 H 0.56860251 V 62.019743 H 2.8747179 v 14.763484 h 8.6654031 z m 12.241047,0 h -2.177997 v -1.33805 q -0.291177,0.191153 -0.792,0.539716 -0.489176,0.337323 -0.955058,0.539716 -0.547411,0.258618 -1.257881,0.427275 -0.71047,0.179906 -1.665528,0.179906 -1.758704,0 -2.981644,-1.124409 -1.22294,-1.124408 -1.22294,-2.867237 0,-1.428002 0.628941,-2.305041 0.640587,-0.888279 1.816939,-1.394266 1.187999,-0.50598 2.853527,-0.685885 1.665528,-0.179906 3.575644,-0.269858 v -0.326082 q 0,-0.719622 -0.267883,-1.191873 -0.256235,-0.472252 -0.745411,-0.74211 -0.465882,-0.25861 -1.118116,-0.348563 -0.652235,-0.08995 -1.362705,-0.08995 -0.861881,0 -1.921763,0.224881 -1.059881,0.213634 -2.189645,0.629669 h -0.11647 V 66.4724 q 0.640588,-0.168658 1.851881,-0.371051 1.211292,-0.202394 2.387644,-0.202394 1.374352,0 2.387645,0.224882 1.02494,0.213634 1.770351,0.742109 0.733764,0.517228 1.118117,1.338042 0.384352,0.820822 0.384352,2.035183 z m -2.177997,-3.092127 v -3.496906 q -1.001647,0.0562 -2.364351,0.168658 -1.351058,0.112441 -2.143057,0.326082 -0.943411,0.25861 -1.525763,0.809574 -0.582353,0.539716 -0.582353,1.495459 0,1.079432 0.675529,1.630396 0.675529,0.539716 2.061528,0.539716 1.153057,0 2.108115,-0.427275 0.955058,-0.438523 1.770352,-1.045704 z m 17.272571,3.092127 h -2.189645 v -7.151237 q 0,-0.865798 -0.104823,-1.619148 -0.104824,-0.764598 -0.384353,-1.191873 -0.291176,-0.472251 -0.838587,-0.697133 -0.547411,-0.236129 -1.42094,-0.236129 -0.896823,0 -1.875175,0.427275 -0.978352,0.427275 -1.875174,1.09068 v 9.377565 H 27.9974 V 66.202542 h 2.189645 v 1.394266 q 1.02494,-0.820815 2.119762,-1.281826 1.094823,-0.461003 2.247881,-0.461003 2.108115,0 3.214585,1.225601 1.106469,1.225609 1.106469,3.530642 z m 14.768457,0 h -2.189645 v -1.315562 q -0.943411,0.787086 -1.968351,1.225609 -1.024941,0.438516 -2.224586,0.438516 -2.32941,0 -3.703762,-1.731589 -1.362704,-1.731589 -1.362704,-4.80122 0,-1.59666 0.465882,-2.844756 0.477529,-1.24809 1.281175,-2.125128 0.791999,-0.854551 1.840233,-1.304314 1.059882,-0.449763 2.189645,-0.449763 1.024941,0 1.81694,0.213634 0.791999,0.202393 1.665528,0.640916 v -5.442136 h 2.189645 z m -2.189645,-3.092127 v -7.207453 q -0.885176,-0.382299 -1.583999,-0.528476 -0.698823,-0.146169 -1.525763,-0.146169 -1.840234,0 -2.865174,1.236849 -1.02494,1.236849 -1.02494,3.508154 0,2.237569 0.791999,3.406953 0.792,1.158144 2.539057,1.158144 0.931763,0 1.886821,-0.393546 0.955058,-0.404787 1.781999,-1.034456 z m 17.389042,-2.968438 h -9.58552 q 0,1.158145 0.361058,2.023935 0.361058,0.854551 0.989999,1.405514 0.605647,0.539716 1.432587,0.809574 0.838587,0.269858 1.840233,0.269858 1.327764,0 2.667174,-0.505987 1.351058,-0.517228 1.921763,-1.011968 h 0.116471 v 2.305041 q -1.10647,0.449763 -2.259528,0.75335 -1.153057,0.303594 -2.422585,0.303594 -3.23788,0 -5.054819,-1.686613 -1.81694,-1.69786 -1.81694,-4.812467 0,-3.080879 1.735411,-4.89118 1.747057,-1.810293 4.588936,-1.810293 2.632233,0 4.053173,1.484219 1.432587,1.484219 1.432587,4.216527 z m -2.13141,-1.619147 q -0.01165,-1.664125 -0.873529,-2.574892 -0.850234,-0.910774 -2.597291,-0.910774 -1.758704,0 -2.806939,1.000727 -1.036587,1.00072 -1.176351,2.484939 z m 14.745162,4.059117 q 0,1.720341 -1.479175,2.822261 -1.467528,1.10192 -4.018231,1.10192 -1.444234,0 -2.655527,-0.326075 -1.199646,-0.337322 -2.014939,-0.730869 v -2.372497 h 0.11647 q 1.036588,0.75335 2.306116,1.203113 1.269528,0.438523 2.434233,0.438523 1.444234,0 2.259527,-0.449764 0.815293,-0.449763 0.815293,-1.416754 0,-0.74211 -0.442588,-1.124408 -0.442587,-0.382299 -1.700468,-0.652157 -0.465882,-0.1012 -1.22294,-0.236129 -0.745412,-0.134929 -1.362705,-0.292347 -1.712116,-0.438515 -2.434233,-1.281825 -0.71047,-0.85455 -0.71047,-2.091399 0,-0.775839 0.326117,-1.461731 0.337765,-0.685886 1.013294,-1.225602 0.652234,-0.528475 1.65388,-0.832062 1.013293,-0.314834 2.259528,-0.314834 1.164704,0 2.352703,0.281098 1.199646,0.269858 1.991645,0.663405 v 2.260057 h -0.11647 q -0.838588,-0.595933 -2.038233,-1.00072 -1.199646,-0.416034 -2.352704,-0.416034 -1.199646,0 -2.026586,0.449763 -0.826941,0.438523 -0.826941,1.315561 0,0.775838 0.500823,1.169385 0.489176,0.393539 1.583999,0.640909 0.605646,0.134929 1.351057,0.269858 0.757058,0.134929 1.257881,0.24737 1.525764,0.337322 2.352704,1.158144 0.82694,0.832062 0.82694,2.20384 z m 14.023046,-2.43997 h -9.58552 q 0,1.158145 0.361058,2.023935 0.361059,0.854551 0.989999,1.405514 0.605647,0.539716 1.432587,0.809574 0.838587,0.269858 1.840234,0.269858 1.327763,0 2.667173,-0.505987 1.351058,-0.517228 1.921763,-1.011968 h 0.116471 v 2.305041 q -1.10647,0.449763 -2.259527,0.75335 -1.153058,0.303594 -2.422586,0.303594 -3.23788,0 -5.054819,-1.686613 -1.816939,-1.69786 -1.816939,-4.812467 0,-3.080879 1.73541,-4.89118 1.747057,-1.810293 4.588936,-1.810293 2.632233,0 4.053173,1.484219 1.432587,1.484219 1.432587,4.216527 z m -2.13141,-1.619147 q -0.01165,-1.664125 -0.873528,-2.574892 -0.850235,-0.910774 -2.597292,-0.910774 -1.758704,0 -2.806939,1.000727 -1.036587,1.00072 -1.176351,2.484939 z m 7.663756,7.679712 H 98.823097 V 61.266393 h 2.189643 z m 11.08799,-0.112441 q -0.61729,0.157417 -1.35106,0.25861 -0.72211,0.1012 -1.29282,0.1012 -1.99164,0 -3.02823,-1.034455 -1.03659,-1.034456 -1.03659,-3.317008 v -6.678985 h -1.47917 v -1.776565 h 1.47917 v -3.609347 h 2.18965 v 3.609347 h 4.51905 v 1.776565 h -4.51905 v 5.723241 q 0,0.98948 0.0466,1.551684 0.0466,0.550956 0.32612,1.034455 0.25624,0.449764 0.69882,0.663398 0.45424,0.202393 1.37436,0.202393 0.53576,0 1.11811,-0.146169 0.58236,-0.157417 0.83859,-0.258618 h 0.11647 z m 13.53387,-5.948124 h -9.58552 q 0,1.158145 0.36106,2.023935 0.36106,0.854551 0.99,1.405514 0.60564,0.539716 1.43258,0.809574 0.83859,0.269858 1.84024,0.269858 1.32776,0 2.66717,-0.505987 1.35106,-0.517228 1.92176,-1.011968 h 0.11648 v 2.305041 q -1.10647,0.449763 -2.25953,0.75335 -1.15306,0.303594 -2.42259,0.303594 -3.23788,0 -5.05482,-1.686613 -1.81694,-1.69786 -1.81694,-4.812467 0,-3.080879 1.73541,-4.89118 1.74706,-1.810293 4.58894,-1.810293 2.63223,0 4.05317,1.484219 1.43259,1.484219 1.43259,4.216527 z m -2.13141,-1.619147 q -0.0117,-1.664125 -0.87353,-2.574892 -0.85023,-0.910774 -2.59729,-0.910774 -1.7587,0 -2.80694,1.000727 -1.03659,1.00072 -1.17635,2.484939 z M 137.072,68.507582 h -0.11647 q -0.48918,-0.112441 -0.95506,-0.157417 -0.45423,-0.0562 -1.08317,-0.0562 -1.0133,0 -1.95671,0.438522 -0.94341,0.427276 -1.81694,1.113161 v 8.916561 h -2.18964 V 66.202563 h 2.18964 v 1.855277 q 1.30447,-1.011967 2.29447,-1.428002 1.00165,-0.427275 2.03824,-0.427275 0.5707,0 0.82694,0.03375 0.25623,0.02245 0.7687,0.101194 z m 12.93987,10.254604 h -2.18964 v -7.151237 q 0,-0.865798 -0.10483,-1.619148 -0.10482,-0.764598 -0.38435,-1.191873 -0.29118,-0.472251 -0.83859,-0.697133 -0.54741,-0.236129 -1.42094,-0.236129 -0.89682,0 -1.87517,0.427275 -0.97836,0.427275 -1.87517,1.09068 v 9.377565 h -2.18965 V 66.202542 h 2.18965 v 1.394266 q 1.02494,-0.820815 2.11976,-1.281826 1.09482,-0.461003 2.24787,-0.461003 2.10812,0 3.21459,1.225601 1.10647,1.225609 1.10647,3.530642 z m 16.02634,0 h -2.88847 l -5.21787,-5.49836 -1.42094,1.304313 v 4.194047 h -2.18965 V 61.266393 h 2.18965 v 11.221594 l 6.32434,-6.285445 h 2.76035 l -6.04482,5.801946 z m 13.16116,-6.274199 q 0,3.069631 -1.63058,4.846196 -1.63059,1.776566 -4.36765,1.776566 -2.76035,0 -4.39093,-1.776566 -1.61895,-1.776565 -1.61895,-4.846196 0,-3.069638 1.61895,-4.846203 1.63058,-1.787805 4.39093,-1.787805 2.73706,0 4.36765,1.787805 1.63058,1.776565 1.63058,4.846203 z m -2.25952,0 q 0,-2.439969 -0.99001,-3.620594 -0.98999,-1.191873 -2.7487,-1.191873 -1.78199,0 -2.772,1.191873 -0.97835,1.180625 -0.97835,3.620594 0,2.361258 0.99,3.586859 0.99,1.214361 2.76035,1.214361 1.74706,0 2.73706,-1.203113 1.00165,-1.214361 1.00165,-3.598107 z m 16.52715,6.274199 h -2.18964 v -7.151237 q 0,-0.865798 -0.10482,-1.619148 -0.10483,-0.764598 -0.38436,-1.191873 -0.29117,-0.472251 -0.83858,-0.697133 -0.54741,-0.236129 -1.42094,-0.236129 -0.89682,0 -1.87517,0.427275 -0.97836,0.427275 -1.87518,1.09068 v 9.377565 h -2.18965 V 66.202542 h 2.18965 v 1.394266 q 1.02494,-0.820815 2.11976,-1.281826 1.09482,-0.461003 2.24788,-0.461003 2.10812,0 3.21459,1.225601 1.10646,1.225609 1.10646,3.530642 z m 11.21611,-15.44937 h -0.11647 q -0.36106,-0.1012 -0.94341,-0.202393 -0.58235,-0.112441 -1.02494,-0.112441 -1.40929,0 -2.04988,0.60718 -0.62894,0.595933 -0.62894,2.170105 v 0.427275 h 3.94835 v 1.776565 h -3.87847 v 10.783079 h -2.18964 V 67.979107 h -1.47918 v -1.776565 h 1.47918 v -0.416028 q 0,-2.237576 1.15306,-3.429449 1.15305,-1.203113 3.33105,-1.203113 0.73376,0 1.31612,0.06743 0.594,0.06743 1.08317,0.157417 z m 12.27599,9.388805 h -9.58552 q 0,1.158145 0.36106,2.023935 0.36106,0.854551 0.99,1.405514 0.60564,0.539716 1.43259,0.809574 0.83858,0.269858 1.84023,0.269858 1.32776,0 2.66717,-0.505987 1.35106,-0.517228 1.92177,-1.011968 h 0.11647 v 2.305041 q -1.10648,0.449763 -2.25953,0.75335 -1.15306,0.303594 -2.42259,0.303594 -3.23787,0 -5.05481,-1.686613 -1.81694,-1.69786 -1.81694,-4.812467 0,-3.080879 1.7354,-4.89118 1.74706,-1.810293 4.58894,-1.810293 2.63223,0 4.05317,1.484219 1.43259,1.484219 1.43259,4.216527 z m -2.13141,-1.619147 q -0.0116,-1.664125 -0.87353,-2.574892 -0.85023,-0.910774 -2.59729,-0.910774 -1.7587,0 -2.80694,1.000727 -1.03659,1.00072 -1.17635,2.484939 z m 13.56881,-2.574892 h -0.11647 q -0.48917,-0.112441 -0.95505,-0.157417 -0.45424,-0.0562 -1.08318,-0.0562 -1.01329,0 -1.95671,0.438522 -0.9434,0.427276 -1.81694,1.113161 v 8.916561 h -2.18964 V 66.202563 h 2.18964 v 1.855277 q 1.30447,-1.011967 2.29448,-1.428002 1.00164,-0.427275 2.03822,-0.427275 0.57071,0 0.82695,0.03375 0.25623,0.02245 0.7687,0.101194 z m 12.95152,4.194039 h -9.58552 q 0,1.158145 0.36106,2.023935 0.36105,0.854551 0.98999,1.405514 0.60565,0.539716 1.4326,0.809574 0.83858,0.269858 1.84023,0.269858 1.32776,0 2.66717,-0.505987 1.35106,-0.517228 1.92177,-1.011968 h 0.11647 v 2.305041 q -1.10648,0.449763 -2.25953,0.75335 -1.15306,0.303594 -2.42259,0.303594 -3.23788,0 -5.05482,-1.686613 -1.81694,-1.69786 -1.81694,-4.812467 0,-3.080879 1.73541,-4.89118 1.74706,-1.810293 4.58894,-1.810293 2.63223,0 4.05317,1.484219 1.43259,1.484219 1.43259,4.216527 z m -2.13141,-1.619147 q -0.0116,-1.664125 -0.87353,-2.574892 -0.85024,-0.910774 -2.59729,-0.910774 -1.7587,0 -2.80694,1.000727 -1.03659,1.00072 -1.17635,2.484939 z m 16.32916,7.679712 h -2.18965 v -7.151237 q 0,-0.865798 -0.10482,-1.619148 -0.10482,-0.764598 -0.38435,-1.191873 -0.29118,-0.472251 -0.83859,-0.697133 -0.54741,-0.236129 -1.42094,-0.236129 -0.89682,0 -1.87517,0.427275 -0.97835,0.427275 -1.87518,1.09068 v 9.377565 h -2.18964 V 66.202542 h 2.18964 v 1.394266 q 1.02494,-0.820815 2.11976,-1.281826 1.09483,-0.461003 2.24789,-0.461003 2.10811,0 3.21458,1.225601 1.10647,1.225609 1.10647,3.530642 z m 13.65034,0 h -10.50564 v -1.562932 l 7.58223,-9.231388 h -7.41917 v -1.765324 h 10.14458 v 1.506707 l -7.61717,9.265124 h 7.81517 z m 24.88974,0 h -2.85353 l -8.22281,-14.977119 v 14.977119 h -2.1547 V 62.019743 h 3.57564 l 7.5007,13.672804 V 62.019743 h 2.1547 z m 18.9614,0 h -2.9933 l -5.80023,-6.656497 h -3.24952 v 6.656497 h -2.30612 V 62.019743 h 4.85682 q 1.57235,0 2.62059,0.202393 1.04823,0.191153 1.88682,0.697134 0.94341,0.573451 1.46753,1.45049 0.53576,0.865791 0.53576,2.20384 0,1.810294 -0.94341,3.035902 -0.94341,1.214361 -2.59729,1.832782 z m -5.39259,-12.031169 q 0,-0.719621 -0.26788,-1.270585 -0.25623,-0.562204 -0.86188,-0.944503 -0.50083,-0.326075 -1.188,-0.449763 -0.68718,-0.134929 -1.61894,-0.134929 h -2.71376 v 6.319174 h 2.32941 q 1.09482,0 1.91011,-0.179905 0.8153,-0.191146 1.386,-0.697133 0.52412,-0.472252 0.7687,-1.079432 0.25624,-0.618421 0.25624,-1.562924 z m 27.81315,-4.711274 -4.5074,16.742443 h -2.5973 l -3.64552,-13.897687 -3.564,13.897687 h -2.53905 L 314.0256,62.019743 h 2.36435 l 3.64552,13.920174 3.5873,-13.920174 h 2.34105 l 3.62223,14.055103 3.62223,-14.055103 z"
     id="text8"
     aria-label="Landeselternkonferenz NRW" />
  <path
     d="m 6.8086175,88.53567 q 0,1.098688 -0.481691,1.99171 -0.476278,0.893022 -1.27188,1.385538 -0.55205,0.340972 -1.233994,0.492515 -0.676532,0.151543 -1.7860445,0.151543 H -2.0337808e-7 V 84.498127 H 2.013359 q 1.1798718,0 1.8726405,0.173192 0.698181,0.16778 1.179872,0.465454 0.822663,0.514165 1.282704,1.369301 0.460042,0.855136 0.460042,2.029596 z m -1.120337,-0.01624 q 0,-0.947145 -0.330147,-1.596615 Q 5.0279855,86.273347 4.3731025,85.899901 3.8968241,85.629289 3.3610107,85.526456 2.8251974,85.418211 2.0783061,85.418211 H 1.0716265 v 6.218682 h 1.0066796 q 0.7739526,0 1.3476517,-0.113658 0.5791117,-0.113657 1.0608017,-0.422156 0.600761,-0.38427 0.898435,-1.012092 0.303086,-0.627821 0.303086,-1.569554 z m 7.4689125,4.037543 h -1.012092 v -0.644058 q -0.135306,0.09201 -0.368033,0.259788 -0.227315,0.162368 -0.443805,0.259788 -0.254376,0.124482 -0.584524,0.205666 -0.330147,0.0866 -0.7739515,0.0866 -0.817251,0 -1.385538,-0.541226 -0.568287,-0.541225 -0.568287,-1.380125 0,-0.687356 0.292262,-1.109512 0.297674,-0.427569 0.844312,-0.67112 0.55205,-0.243552 1.3260025,-0.330148 0.773953,-0.0866 1.661562,-0.129894 V 88.40578 q 0,-0.346385 -0.124481,-0.573699 -0.11907,-0.227315 -0.346385,-0.357209 -0.21649,-0.124482 -0.519576,-0.16778 -0.303087,-0.0433 -0.633234,-0.0433 -0.400507,0 -0.8930225,0.108245 -0.492515,0.102833 -1.017504,0.303086 h -0.05412 v -1.033741 q 0.297674,-0.08118 0.860549,-0.178604 0.562874,-0.09742 1.1095115,-0.09742 0.638646,0 1.109512,0.108245 0.476279,0.102833 0.822663,0.357209 0.340972,0.248964 0.519577,0.644059 0.178604,0.395094 0.178604,0.979618 z m -1.012092,-1.48837 v -1.683212 q -0.465454,0.02706 -1.098687,0.08118 -0.627822,0.05412 -0.995856,0.156955 -0.4383915,0.124482 -0.7090045,0.389683 -0.270613,0.259788 -0.270613,0.71983 0,0.519576 0.313911,0.784777 0.313911,0.259788 0.9579685,0.259788 0.535814,0 0.979619,-0.205666 0.443805,-0.211078 0.822662,-0.503339 z m 7.441853,1.109512 q -0.508753,0.243552 -0.968794,0.378858 -0.45463,0.135306 -0.968794,0.135306 -0.654883,0 -1.201521,-0.189429 -0.546638,-0.194841 -0.93632,-0.584523 -0.395095,-0.389683 -0.611585,-0.985031 -0.21649,-0.595348 -0.21649,-1.390949 0,-1.482959 0.811838,-2.327271 0.817251,-0.844311 2.154078,-0.844311 0.519576,0 1.017504,0.14613 0.50334,0.146131 0.920084,0.357209 v 1.131162 h -0.05412 q -0.465454,-0.362621 -0.963382,-0.557463 -0.492515,-0.194841 -0.963381,-0.194841 -0.865961,0 -1.369301,0.584524 -0.497927,0.579111 -0.497927,1.704861 0,1.093275 0.487103,1.683211 0.492515,0.584524 1.380125,0.584524 0.308498,0 0.627822,-0.08118 0.319323,-0.08118 0.573699,-0.211078 0.221902,-0.113657 0.416743,-0.238139 0.194842,-0.129894 0.308499,-0.221903 h 0.05412 z m 6.359401,0.378858 h -1.017504 v -3.442195 q 0,-0.416743 -0.04871,-0.779365 -0.04871,-0.368033 -0.178604,-0.573699 -0.135307,-0.227314 -0.389683,-0.33556 -0.254376,-0.113657 -0.660295,-0.113657 -0.416744,0 -0.871373,0.205666 -0.454629,0.205666 -0.871373,0.524989 v 4.513821 h -1.017504 v -8.42147 h 1.017504 v 3.0471 q 0.476278,-0.395095 0.98503,-0.616997 0.508752,-0.221903 1.044566,-0.221903 0.979618,0 1.493782,0.589936 0.514165,0.589936 0.514165,1.699449 z m 7.07923,-6.04549 -2.446339,6.04549 h -1.022917 l -2.430103,-6.04549 h 1.1041 l 1.872641,4.811496 1.856404,-4.811496 z m 6.294453,3.128284 h -4.454287 q 0,0.557462 0.16778,0.974206 0.16778,0.411332 0.460042,0.676532 0.281437,0.259788 0.665707,0.389683 0.389683,0.129894 0.855137,0.129894 0.616997,0 1.239406,-0.243552 0.627822,-0.248964 0.893023,-0.487103 h 0.05412 v 1.109513 q -0.514164,0.21649 -1.049977,0.362621 -0.535814,0.146131 -1.12575,0.146131 -1.504607,0 -2.348919,-0.811839 -0.844312,-0.81725 -0.844312,-2.316445 0,-1.482958 0.806426,-2.354332 0.811839,-0.871373 2.132429,-0.871373 1.22317,0 1.883465,0.714418 0.665708,0.714418 0.665708,2.029596 z m -0.990443,-0.779365 q -0.0054,-0.801014 -0.405919,-1.239406 -0.395095,-0.438393 -1.206933,-0.438393 -0.817251,0 -1.304354,0.481691 -0.481691,0.481691 -0.546638,1.196108 z m 6.305281,-1.239406 h -0.05412 q -0.227315,-0.05412 -0.443805,-0.07577 -0.211078,-0.02706 -0.50334,-0.02706 -0.470866,0 -0.909259,0.211078 -0.438392,0.205666 -0.844311,0.535813 v 4.291919 h -1.017505 v -6.04549 h 1.017505 v 0.893022 q 0.606172,-0.487103 1.066214,-0.687356 0.465454,-0.205666 0.947145,-0.205666 0.2652,0 0.38427,0.01624 0.11907,0.01082 0.357209,0.04871 z m 6.278214,1.867228 q 0,0.757716 -0.216491,1.363888 -0.211078,0.606173 -0.573699,1.017505 -0.38427,0.427568 -0.844312,0.644058 -0.460042,0.211078 -1.012092,0.211078 -0.514164,0 -0.898434,-0.124482 -0.38427,-0.11907 -0.757716,-0.324735 l -0.06495,0.281437 h -0.952557 v -8.42147 h 1.017504 v 3.009214 q 0.427568,-0.351796 0.909259,-0.573699 0.481691,-0.227315 1.082451,-0.227315 1.071627,0 1.688624,0.822663 0.62241,0.822663 0.62241,2.321858 z m -1.049978,0.02706 q 0,-1.082451 -0.357209,-1.639913 -0.357209,-0.562875 -1.152811,-0.562875 -0.443805,0 -0.898434,0.194841 -0.454629,0.189429 -0.844312,0.492516 v 3.463843 q 0.432981,0.194842 0.741479,0.270613 0.313911,0.07577 0.709006,0.07577 0.844312,0 1.32059,-0.55205 0.481691,-0.557463 0.481691,-1.742747 z m 7.333608,3.041688 h -1.012092 v -0.644058 q -0.135306,0.09201 -0.368033,0.259788 -0.227315,0.162368 -0.443805,0.259788 -0.254376,0.124482 -0.584524,0.205666 -0.330147,0.0866 -0.773952,0.0866 -0.817251,0 -1.385538,-0.541226 -0.568287,-0.541225 -0.568287,-1.380125 0,-0.687356 0.292262,-1.109512 0.297674,-0.427569 0.844312,-0.67112 0.55205,-0.243552 1.326003,-0.330148 0.773952,-0.0866 1.661562,-0.129894 v -0.156955 q 0,-0.346385 -0.124481,-0.573699 -0.11907,-0.227315 -0.346385,-0.357209 -0.21649,-0.124482 -0.519576,-0.16778 -0.303087,-0.0433 -0.633234,-0.0433 -0.400507,0 -0.893023,0.108245 -0.492515,0.102833 -1.017504,0.303086 h -0.05412 v -1.033741 q 0.297674,-0.08118 0.860548,-0.178604 0.562875,-0.09742 1.109513,-0.09742 0.638646,0 1.109512,0.108245 0.476279,0.102833 0.822663,0.357209 0.340972,0.248964 0.519577,0.644059 0.178604,0.395094 0.178604,0.979618 z m -1.012092,-1.48837 V 89.38539 q -0.465454,0.02706 -1.098688,0.08118 -0.627821,0.05412 -0.995855,0.156955 -0.438392,0.124482 -0.709005,0.389683 -0.270613,0.259788 -0.270613,0.71983 0,0.519576 0.313911,0.784777 0.313911,0.259788 0.957969,0.259788 0.535814,0 0.979619,-0.205666 0.443805,-0.211078 0.822662,-0.503339 z m 8.026375,1.48837 H 63.193499 V 89.11478 q 0,-0.416743 -0.04871,-0.779365 -0.04871,-0.368033 -0.178605,-0.573699 -0.135306,-0.227314 -0.389682,-0.33556 -0.254376,-0.113657 -0.660295,-0.113657 -0.416744,0 -0.871374,0.205666 -0.454629,0.205666 -0.871373,0.524989 v 4.513821 h -1.017504 v -6.04549 h 1.017504 v 0.67112 q 0.476279,-0.395095 0.985031,-0.616997 0.508752,-0.221903 1.044565,-0.221903 0.979619,0 1.493783,0.589936 0.514164,0.589936 0.514164,1.699449 z m 6.862743,0 h -1.017504 v -0.633233 q -0.438393,0.378858 -0.914671,0.589936 -0.476279,0.211078 -1.033741,0.211078 -1.082451,0 -1.721098,-0.833487 -0.633234,-0.833488 -0.633234,-2.311034 0,-0.76854 0.216491,-1.3693 0.221902,-0.600761 0.595348,-1.022917 0.368033,-0.411331 0.855136,-0.627821 0.492516,-0.216491 1.017504,-0.216491 0.476279,0 0.844312,0.102833 0.368034,0.09742 0.773953,0.308499 v -2.619532 h 1.017504 z m -1.017504,-1.48837 V 87.599346 Q 69.64491,87.415329 69.320175,87.34497 68.99544,87.27461 68.61117,87.27461 q -0.855137,0 -1.331415,0.595348 -0.476279,0.595349 -0.476279,1.688624 0,1.077039 0.368034,1.639914 0.368033,0.557462 1.179871,0.557462 0.432981,0 0.876786,-0.189429 0.443805,-0.194841 0.828075,-0.497927 z m 11.820368,1.48837 h -1.017504 v -0.633233 q -0.438393,0.378858 -0.914671,0.589936 -0.476279,0.211078 -1.033741,0.211078 -1.082451,0 -1.721098,-0.833487 -0.633233,-0.833488 -0.633233,-2.311034 0,-0.76854 0.21649,-1.3693 0.221902,-0.600761 0.595348,-1.022917 0.368033,-0.411331 0.855136,-0.627821 0.492516,-0.216491 1.017504,-0.216491 0.476279,0 0.844312,0.102833 0.368034,0.09742 0.773953,0.308499 v -2.619532 h 1.017504 z m -1.017504,-1.48837 v -3.469256 q -0.411331,-0.184017 -0.736067,-0.254376 -0.324735,-0.07036 -0.709005,-0.07036 -0.855137,0 -1.331415,0.595348 -0.476279,0.595349 -0.476279,1.688624 0,1.077039 0.368034,1.639914 0.368033,0.557462 1.179871,0.557462 0.432981,0 0.876786,-0.189429 0.443805,-0.194841 0.828075,-0.497927 z m 8.080496,-1.428836 h -4.454287 q 0,0.557462 0.16778,0.974206 0.16778,0.411332 0.460042,0.676532 0.281437,0.259788 0.665707,0.389683 0.389683,0.129894 0.855137,0.129894 0.616997,0 1.239406,-0.243552 0.627822,-0.248964 0.893023,-0.487103 h 0.05412 v 1.109513 q -0.514164,0.21649 -1.049977,0.362621 -0.535814,0.146131 -1.12575,0.146131 -1.504607,0 -2.348919,-0.811839 -0.844312,-0.81725 -0.844312,-2.316445 0,-1.482958 0.806427,-2.354332 0.811838,-0.871373 2.132428,-0.871373 1.22317,0 1.883465,0.714418 0.665708,0.714418 0.665708,2.029596 z m -0.990443,-0.779365 q -0.0054,-0.801014 -0.405919,-1.239406 -0.395095,-0.438393 -1.206933,-0.438393 -0.817251,0 -1.304354,0.481691 -0.481691,0.481691 -0.546638,1.196108 z m 6.305281,-1.239406 h -0.0541 q -0.227311,-0.05412 -0.443802,-0.07577 -0.211077,-0.02706 -0.503339,-0.02706 -0.470867,0 -0.909259,0.211078 -0.438393,0.205666 -0.844312,0.535813 v 4.291919 h -1.017504 v -6.04549 h 1.017504 v 0.893022 q 0.606172,-0.487103 1.066214,-0.687356 0.465454,-0.205666 0.947145,-0.205666 0.265201,0 0.38427,0.01624 0.119073,0.01082 0.357213,0.04871 z m 10.79203,2.635768 q 0,0.470867 -0.2219,0.930908 -0.21649,0.460042 -0.61158,0.779365 -0.43298,0.346385 -1.01209,0.541226 -0.5737,0.194841 -1.38554,0.194841 -0.87138,0 -1.56956,-0.162368 -0.69277,-0.162367 -1.4126,-0.48169 v -1.34224 h 0.0758 q 0.61158,0.508752 1.4126,0.784777 0.80101,0.276025 1.5046,0.276025 0.99586,0 1.54791,-0.373445 0.55746,-0.373446 0.55746,-0.995856 0,-0.535813 -0.2652,-0.790189 -0.25979,-0.254376 -0.7956,-0.395095 -0.40592,-0.108245 -0.8822,-0.178604 -0.47087,-0.07036 -1.00127,-0.178604 -1.07162,-0.227315 -1.5912,-0.773953 -0.51416,-0.55205 -0.51416,-1.434248 0,-1.012092 0.85513,-1.65615 0.85514,-0.649471 2.17032,-0.649471 0.84972,0 1.55873,0.162368 0.709,0.162367 1.25564,0.400507 v 1.266468 h -0.0758 q -0.46004,-0.389683 -1.21235,-0.644059 -0.74689,-0.259788 -1.53167,-0.259788 -0.86054,0 -1.38553,0.357209 -0.51958,0.357209 -0.51958,0.920083 0,0.50334 0.25979,0.79019 0.25979,0.286849 0.91467,0.438392 0.34638,0.07577 0.98503,0.184017 0.63865,0.108245 1.08245,0.221903 0.89844,0.238139 1.35307,0.71983 0.45462,0.48169 0.45462,1.347651 z m 4.77902,2.246086 q -0.28685,0.07577 -0.62782,0.124482 -0.33556,0.04871 -0.60076,0.04871 -0.92549,0 -1.40718,-0.497928 -0.48169,-0.497927 -0.48169,-1.596615 v -3.21488 h -0.68736 v -0.855137 h 0.68736 v -1.737332 h 1.0175 v 1.737334 h 2.09995 v 0.855137 h -2.09995 v 2.754838 q 0,0.476278 0.0216,0.746891 0.0217,0.265201 0.15154,0.497928 0.11907,0.21649 0.32474,0.319323 0.21107,0.09742 0.63864,0.09742 0.24897,0 0.51958,-0.07036 0.27061,-0.07577 0.38968,-0.124482 h 0.0541 z m 5.92643,0.05412 h -1.0121 v -0.644058 q -0.1353,0.09201 -0.36803,0.259788 -0.22731,0.162368 -0.44381,0.259788 -0.25437,0.124482 -0.58452,0.205666 -0.33015,0.0866 -0.77395,0.0866 -0.81725,0 -1.38554,-0.541226 -0.56829,-0.541225 -0.56829,-1.380125 0,-0.687356 0.29227,-1.109512 0.29767,-0.427569 0.84431,-0.67112 0.55205,-0.243552 1.326,-0.330148 0.77395,-0.0866 1.66156,-0.129894 v -0.156955 q 0,-0.346385 -0.12448,-0.573699 -0.11907,-0.227315 -0.34638,-0.357209 -0.21649,-0.124482 -0.51958,-0.16778 -0.30309,-0.0433 -0.63323,-0.0433 -0.40051,0 -0.89303,0.108245 -0.49251,0.102833 -1.0175,0.303086 h -0.0541 v -1.033741 q 0.29767,-0.08118 0.86055,-0.178604 0.56287,-0.09742 1.10951,-0.09742 0.63864,0 1.10951,0.108245 0.47628,0.102833 0.82266,0.357209 0.34098,0.248964 0.51958,0.644059 0.17861,0.395094 0.17861,0.979618 z m -1.0121,-1.48837 V 89.38539 q -0.46545,0.02706 -1.09868,0.08118 -0.62783,0.05412 -0.99586,0.156955 -0.43839,0.124482 -0.70901,0.389683 -0.27061,0.259788 -0.27061,0.71983 0,0.519576 0.31391,0.784777 0.31391,0.259788 0.95797,0.259788 0.53582,0 0.97962,-0.205666 0.44381,-0.211078 0.82266,-0.503338 z m 7.87483,1.48837 h -1.0175 v -0.63323 q -0.43839,0.378858 -0.91467,0.589936 -0.47628,0.211078 -1.03374,0.211078 -1.08245,0 -1.7211,-0.833487 -0.63323,-0.833488 -0.63323,-2.311034 0,-0.76854 0.21649,-1.3693 0.2219,-0.600761 0.59535,-1.022917 0.36803,-0.411331 0.85513,-0.627821 0.49252,-0.216491 1.01751,-0.216491 0.47627,0 0.84431,0.102833 0.36803,0.09742 0.77395,0.308499 v -2.619532 h 1.0175 z m -1.0175,-1.48837 v -3.469256 q -0.41133,-0.184017 -0.73607,-0.254376 -0.32473,-0.07036 -0.709,-0.07036 -0.85514,0 -1.33142,0.595348 -0.47628,0.595349 -0.47628,1.688624 0,1.077039 0.36804,1.639914 0.36803,0.557462 1.17987,0.557462 0.43298,0 0.87679,-0.189429 0.4438,-0.194841 0.82807,-0.497927 z m 6.15915,1.434247 q -0.28685,0.07577 -0.62782,0.124482 -0.33556,0.04871 -0.60076,0.04871 -0.92549,0 -1.40719,-0.497928 -0.48169,-0.497927 -0.48169,-1.596615 v -3.21488 h -0.68735 v -0.855137 h 0.68735 v -1.737329 h 1.01751 v 1.737334 h 2.09995 v 0.855137 h -2.09995 v 2.754838 q 0,0.476278 0.0216,0.746891 0.0216,0.265201 0.15154,0.497928 0.11907,0.21649 0.32474,0.319323 0.21107,0.09742 0.63864,0.09742 0.24897,0 0.51958,-0.07036 0.27061,-0.07577 0.38968,-0.124482 h 0.0541 z m 4.21615,-2.982153 h -3.37725 v -0.979614 h 3.37725 z m 10.73791,3.036276 h -1.0175 v -0.67112 q -0.51416,0.40592 -0.98503,0.62241 -0.47087,0.21649 -1.03915,0.21649 -0.95256,0 -1.48296,-0.579111 -0.5304,-0.584524 -0.5304,-1.710273 v -3.923886 h 1.0175 v 3.442195 q 0,0.460042 0.0433,0.790189 0.0433,0.324736 0.18402,0.557463 0.14613,0.238139 0.37885,0.346384 0.23273,0.108245 0.67654,0.108245 0.39509,0 0.86055,-0.205666 0.47086,-0.205665 0.87678,-0.524988 v -4.513822 h 1.0175 z m 7.05759,0 h -1.01751 v -3.442195 q 0,-0.416743 -0.0487,-0.779365 -0.0487,-0.368033 -0.1786,-0.573699 -0.13531,-0.227314 -0.38969,-0.33556 -0.25437,-0.113657 -0.66029,-0.113657 -0.41675,0 -0.87137,0.205666 -0.45463,0.205666 -0.87138,0.524989 v 4.513821 h -1.0175 v -6.04549 h 1.0175 v 0.67112 q 0.47628,-0.395095 0.98503,-0.616997 0.50875,-0.221903 1.04457,-0.221903 0.97962,0 1.49378,0.589936 0.51417,0.589936 0.51417,1.699449 z m 6.86273,0 h -1.0175 v -0.63323 q -0.43839,0.378858 -0.91467,0.589936 -0.47628,0.211078 -1.03374,0.211078 -1.08245,0 -1.7211,-0.833487 -0.63323,-0.833488 -0.63323,-2.311034 0,-0.76854 0.21649,-1.3693 0.2219,-0.600761 0.59535,-1.022917 0.36803,-0.411331 0.85513,-0.627821 0.49252,-0.216491 1.01751,-0.216491 0.47627,0 0.84431,0.102833 0.36803,0.09742 0.77395,0.308499 v -2.619532 h 1.0175 z m -1.0175,-1.48837 v -3.469256 q -0.41133,-0.184017 -0.73607,-0.254376 -0.32473,-0.07036 -0.709,-0.07036 -0.85514,0 -1.33142,0.595348 -0.47628,0.595349 -0.47628,1.688624 0,1.077039 0.36804,1.639914 0.36803,0.557462 1.17987,0.557462 0.43298,0 0.87678,-0.189429 0.44381,-0.194841 0.82808,-0.497927 z m 13.47651,1.48837 h -1.39095 l -3.18782,-3.588326 -0.80101,0.855137 v 2.733189 h -1.07163 V 84.49812 h 1.07163 v 4.205323 l 3.91306,-4.205323 h 1.29894 l -3.59915,3.788579 z m 4.89268,-4.935977 h -0.0541 q -0.22732,-0.05412 -0.44381,-0.07577 -0.21107,-0.02706 -0.50334,-0.02706 -0.47086,0 -0.90925,0.211078 -0.4384,0.205666 -0.84432,0.535813 v 4.291919 h -1.0175 v -6.04549 h 1.0175 v 0.893022 q 0.60618,-0.487103 1.06622,-0.687356 0.46545,-0.205666 0.94714,-0.205666 0.2652,0 0.38427,0.01624 0.11907,0.01082 0.35721,0.04871 z m 6.01843,2.018771 h -4.45428 q 0,0.557462 0.16778,0.974206 0.16778,0.411332 0.46004,0.676532 0.28144,0.259788 0.66571,0.389683 0.38968,0.129894 0.85513,0.129894 0.617,0 1.23941,-0.243552 0.62782,-0.248964 0.89302,-0.487103 h 0.0541 v 1.109513 q -0.51417,0.21649 -1.04998,0.362621 -0.53582,0.146131 -1.12575,0.146131 -1.50461,0 -2.34892,-0.811839 -0.84431,-0.81725 -0.84431,-2.316445 0,-1.482958 0.80642,-2.354332 0.81184,-0.871373 2.13243,-0.871373 1.22317,0 1.88347,0.714418 0.6657,0.714418 0.6657,2.029596 z m -0.99044,-0.779365 q -0.005,-0.801014 -0.40592,-1.239406 -0.39509,-0.438393 -1.20693,-0.438393 -0.81725,0 -1.30435,0.481691 -0.48169,0.481691 -0.54664,1.196108 z m 3.62621,-3.361011 h -1.1474 V 84.444 h 1.1474 z m -0.0649,7.057582 h -1.01751 v -6.04549 h 1.01751 z m 6.33233,-1.742746 q 0,0.828075 -0.68735,1.358476 -0.68195,0.530401 -1.86723,0.530401 -0.67112,0 -1.234,-0.156955 -0.55746,-0.162368 -0.93632,-0.351797 v -1.141986 h 0.0541 q 0.48169,0.362621 1.07162,0.579111 0.58994,0.211078 1.13117,0.211078 0.67111,0 1.04997,-0.21649 0.37886,-0.21649 0.37886,-0.681944 0,-0.357209 -0.20566,-0.541226 -0.20567,-0.184016 -0.79019,-0.313911 -0.21649,-0.04871 -0.56829,-0.113657 -0.34639,-0.06495 -0.63324,-0.140719 -0.7956,-0.211078 -1.13116,-0.616997 -0.33014,-0.411331 -0.33014,-1.006679 0,-0.373446 0.15154,-0.703594 0.15695,-0.330147 0.47087,-0.589936 0.30308,-0.254376 0.76854,-0.400507 0.47086,-0.151543 1.04997,-0.151543 0.54123,0 1.09328,0.135307 0.55746,0.129894 0.92549,0.319323 v 1.087863 h -0.0541 q -0.38968,-0.286849 -0.94714,-0.481691 -0.55747,-0.200253 -1.09328,-0.200253 -0.55746,0 -0.94173,0.21649 -0.38427,0.211078 -0.38427,0.633234 0,0.373446 0.23273,0.562875 0.22731,0.189429 0.73606,0.308498 0.28144,0.06495 0.62782,0.129895 0.3518,0.06495 0.58453,0.119069 0.709,0.162368 1.09327,0.557462 0.38427,0.400507 0.38427,1.060803 z m 5.77488,0 q 0,0.828075 -0.68736,1.358476 -0.68195,0.530401 -1.86723,0.530401 -0.67112,0 -1.23399,-0.156955 -0.55747,-0.162368 -0.93632,-0.351797 v -1.141986 h 0.0541 q 0.48169,0.362621 1.07163,0.579111 0.58993,0.211078 1.13116,0.211078 0.67112,0 1.04997,-0.21649 0.37886,-0.21649 0.37886,-0.681944 0,-0.357209 -0.20566,-0.541226 -0.20567,-0.184016 -0.79019,-0.313911 -0.21649,-0.04871 -0.56829,-0.113657 -0.34638,-0.06495 -0.63323,-0.140719 -0.7956,-0.211078 -1.13116,-0.616997 -0.33015,-0.411331 -0.33015,-1.006679 0,-0.373446 0.15154,-0.703594 0.15696,-0.330147 0.47087,-0.589936 0.30308,-0.254376 0.76854,-0.400507 0.47086,-0.151543 1.04998,-0.151543 0.54122,0 1.09327,0.135307 0.55746,0.129894 0.9255,0.319323 v 1.087863 h -0.0541 q -0.38968,-0.286849 -0.94714,-0.481691 -0.55746,-0.200253 -1.09328,-0.200253 -0.55746,0 -0.94173,0.21649 -0.38427,0.211078 -0.38427,0.633234 0,0.373446 0.23273,0.562875 0.22731,0.189429 0.73606,0.308498 0.28144,0.06495 0.62783,0.129895 0.35179,0.06495 0.58452,0.119069 0.70901,0.162368 1.09328,0.557462 0.38427,0.400507 0.38427,1.060803 z m 5.92643,1.363888 q -0.50876,0.243552 -0.9688,0.378858 -0.45463,0.135306 -0.96879,0.135306 -0.65488,0 -1.20152,-0.189429 -0.54664,-0.194841 -0.93632,-0.584523 -0.3951,-0.389683 -0.61159,-0.985031 -0.21649,-0.595348 -0.21649,-1.390949 0,-1.482959 0.81184,-2.327271 0.81725,-0.844311 2.15408,-0.844311 0.51957,0 1.0175,0.14613 0.50334,0.146131 0.92009,0.357209 v 1.131162 h -0.0541 q -0.46545,-0.362621 -0.96338,-0.557463 -0.49251,-0.194841 -0.96338,-0.194841 -0.86596,0 -1.3693,0.584524 -0.49793,0.579111 -0.49793,1.704861 0,1.093275 0.48711,1.683211 0.49251,0.584524 1.38012,0.584524 0.3085,0 0.62782,-0.08118 0.31933,-0.08118 0.5737,-0.211078 0.2219,-0.113657 0.41674,-0.238139 0.19485,-0.129894 0.3085,-0.221903 h 0.0541 z m 6.35939,0.378858 h -1.0175 v -3.442195 q 0,-0.416743 -0.0487,-0.779365 -0.0487,-0.368033 -0.17861,-0.573699 -0.1353,-0.227314 -0.38968,-0.33556 -0.25438,-0.113657 -0.6603,-0.113657 -0.41674,0 -0.87137,0.205666 -0.45463,0.205666 -0.87137,0.524989 v 4.513821 h -1.01751 v -8.42147 h 1.01751 v 3.0471 q 0.47628,-0.395095 0.98503,-0.616997 0.50875,-0.221903 1.04456,-0.221903 0.97962,0 1.49379,0.589936 0.51416,0.589936 0.51416,1.699449 z m 6.97099,0 h -1.01751 v -0.67112 q -0.51416,0.40592 -0.98503,0.62241 -0.47087,0.21649 -1.03915,0.21649 -0.95256,0 -1.48296,-0.579111 -0.5304,-0.584524 -0.5304,-1.710273 v -3.923886 h 1.0175 v 3.442195 q 0,0.460042 0.0433,0.790189 0.0433,0.324736 0.18402,0.557463 0.14613,0.238139 0.37886,0.346384 0.23272,0.108245 0.67653,0.108245 0.39509,0 0.86055,-0.205666 0.47086,-0.205665 0.87678,-0.524988 v -4.513822 h 1.01751 z m 3.03086,0 h -1.01751 v -8.42147 h 1.01751 z m 7.3336,-3.09581 q 0,0.736066 -0.21107,1.347651 -0.21108,0.606173 -0.59535,1.028329 -0.35721,0.400507 -0.84431,0.622409 -0.4817,0.216491 -1.02292,0.216491 -0.47087,0 -0.85514,-0.102833 -0.37886,-0.102833 -0.77395,-0.319323 v 2.532935 h -1.0175 v -8.275339 h 1.0175 v 0.633234 q 0.40592,-0.340972 0.90926,-0.568287 0.50875,-0.232727 1.08245,-0.232727 1.09328,0 1.69945,0.828075 0.61158,0.822663 0.61158,2.289385 z m -1.04997,0.02706 q 0,-1.093276 -0.37345,-1.634501 -0.37345,-0.541226 -1.1474,-0.541226 -0.43839,0 -0.8822,0.189429 -0.4438,0.189429 -0.84972,0.497928 v 3.425958 q 0.43298,0.194841 0.74148,0.2652 0.31391,0.07036 0.709,0.07036 0.84973,0 1.32601,-0.573699 0.47628,-0.573699 0.47628,-1.699449 z m 5.88854,-4.367691 h -0.0541 q -0.16778,-0.04871 -0.43839,-0.09742 -0.27061,-0.05412 -0.47628,-0.05412 -0.65488,0 -0.95256,0.292262 -0.29226,0.28685 -0.29226,1.044566 v 0.205665 h 1.83476 v 0.855137 h -1.80229 v 5.190353 h -1.0175 v -5.190353 h -0.68736 v -0.855137 h 0.68736 v -0.200253 q 0,-1.077039 0.53581,-1.650738 0.53582,-0.579112 1.54791,-0.579112 0.34097,0 0.61158,0.03247 0.27603,0.03247 0.50334,0.07577 z m 1.67239,7.43644 h -1.01751 v -8.42147 h 1.01751 z m 7.07381,-2.917206 h -4.45428 q 0,0.557462 0.16778,0.974206 0.16778,0.411332 0.46004,0.676532 0.28144,0.259788 0.66571,0.389683 0.38968,0.129894 0.85513,0.129894 0.617,0 1.23941,-0.243552 0.62782,-0.248964 0.89302,-0.487103 h 0.0541 v 1.109513 q -0.51416,0.21649 -1.04997,0.362621 -0.53582,0.146131 -1.12575,0.146131 -1.50461,0 -2.34892,-0.811839 -0.84431,-0.81725 -0.84431,-2.316445 0,-1.482958 0.80642,-2.354332 0.81184,-0.871373 2.13243,-0.871373 1.22317,0 1.88347,0.714418 0.6657,0.714418 0.6657,2.029596 z M 236.89448,88.8604 q -0.005,-0.801014 -0.40592,-1.239406 -0.39509,-0.438393 -1.20693,-0.438393 -0.81725,0 -1.30435,0.481691 -0.4817,0.481691 -0.54664,1.196108 z m 7.43644,3.009215 q 0,1.53708 -0.69818,2.25691 -0.69818,0.71983 -2.14867,0.71983 -0.48169,0 -0.94173,-0.07036 -0.45463,-0.06495 -0.89843,-0.189429 v -1.039153 h 0.0541 q 0.24896,0.09742 0.79019,0.238139 0.54122,0.146131 1.08245,0.146131 0.51958,0 0.86055,-0.124482 0.34097,-0.124482 0.5304,-0.346384 0.18943,-0.211078 0.27061,-0.508752 0.0812,-0.297674 0.0812,-0.665708 v -0.55205 q -0.46005,0.368034 -0.8822,0.55205 -0.41675,0.178605 -1.06622,0.178605 -1.08245,0 -1.72109,-0.779365 -0.63324,-0.784777 -0.63324,-2.208201 0,-0.779364 0.21649,-1.342239 0.2219,-0.568287 0.60076,-0.979618 0.3518,-0.38427 0.85514,-0.595348 0.50334,-0.216491 1.00127,-0.216491 0.52499,0 0.87678,0.108245 0.35721,0.102833 0.75231,0.319324 l 0.0649,-0.259789 h 0.95256 z m -1.0175,-0.974207 v -3.296063 q -0.40592,-0.184017 -0.75772,-0.259789 -0.34638,-0.08118 -0.69277,-0.08118 -0.8389,0 -1.32059,0.562874 -0.48169,0.562875 -0.48169,1.634501 0,1.017505 0.35721,1.542493 0.35721,0.524989 1.18528,0.524989 0.44381,0 0.88761,-0.16778 0.44922,-0.173192 0.82267,-0.460042 z m 7.33901,-0.08118 q 0,0.828075 -0.68735,1.358476 -0.68195,0.530401 -1.86723,0.530401 -0.67112,0 -1.234,-0.156955 -0.55746,-0.162368 -0.93632,-0.351797 v -1.141986 h 0.0541 q 0.48169,0.362621 1.07162,0.579111 0.58994,0.211078 1.13116,0.211078 0.67112,0 1.04998,-0.21649 0.37886,-0.21649 0.37886,-0.681944 0,-0.357209 -0.20567,-0.541226 -0.20566,-0.184016 -0.79019,-0.313911 -0.21649,-0.04871 -0.56828,-0.113657 -0.34639,-0.06495 -0.63324,-0.140719 -0.7956,-0.211078 -1.13116,-0.616997 -0.33015,-0.411331 -0.33015,-1.006679 0,-0.373446 0.15155,-0.703594 0.15695,-0.330147 0.47086,-0.589936 0.30309,-0.254376 0.76854,-0.400507 0.47087,-0.151543 1.04998,-0.151543 0.54123,0 1.09328,0.135307 0.55746,0.129894 0.92549,0.319323 v 1.087863 h -0.0541 q -0.38968,-0.286849 -0.94714,-0.481691 -0.55747,-0.200253 -1.09328,-0.200253 -0.55746,0 -0.94173,0.21649 -0.38427,0.211078 -0.38427,0.633234 0,0.373446 0.23272,0.562875 0.22732,0.189429 0.73607,0.308498 0.28144,0.06495 0.62782,0.129895 0.3518,0.06495 0.58453,0.119069 0.709,0.162368 1.09327,0.557462 0.38427,0.400507 0.38427,1.060803 z m 5.92642,1.363888 q -0.50875,0.243552 -0.9688,0.378858 -0.45463,0.135306 -0.96879,0.135306 -0.65488,0 -1.20152,-0.189429 -0.54664,-0.194841 -0.93632,-0.584523 -0.3951,-0.389683 -0.61159,-0.985031 -0.21649,-0.595348 -0.21649,-1.390949 0,-1.482959 0.81184,-2.327271 0.81725,-0.844311 2.15408,-0.844311 0.51958,0 1.0175,0.14613 0.50334,0.146131 0.92009,0.357209 v 1.131162 h -0.0541 q -0.46545,-0.362621 -0.96338,-0.557463 -0.49251,-0.194841 -0.96338,-0.194841 -0.86596,0 -1.3693,0.584524 -0.49793,0.579111 -0.49793,1.704861 0,1.093275 0.48711,1.683211 0.49251,0.584524 1.38012,0.584524 0.3085,0 0.62782,-0.08118 0.31933,-0.08118 0.5737,-0.211078 0.2219,-0.113657 0.41675,-0.238139 0.19484,-0.129894 0.30849,-0.221903 h 0.0541 z m 6.35941,0.378858 h -1.01751 v -3.442195 q 0,-0.416743 -0.0487,-0.779365 -0.0487,-0.368033 -0.1786,-0.573699 -0.13531,-0.227314 -0.38968,-0.33556 -0.25438,-0.113657 -0.6603,-0.113657 -0.41674,0 -0.87137,0.205666 -0.45463,0.205666 -0.87137,0.524989 v 4.513821 h -1.01751 v -8.42147 h 1.01751 v 3.0471 q 0.47627,-0.395095 0.98503,-0.616997 0.50875,-0.221903 1.04456,-0.221903 0.97962,0 1.49378,0.589936 0.51417,0.589936 0.51417,1.699449 z m 6.65707,0 h -1.01209 v -0.644058 q -0.13531,0.09201 -0.36803,0.259788 -0.22732,0.162368 -0.44381,0.259788 -0.25437,0.124482 -0.58452,0.205666 -0.33015,0.0866 -0.77396,0.0866 -0.81725,0 -1.38553,-0.541226 -0.56829,-0.541225 -0.56829,-1.380125 0,-0.687356 0.29226,-1.109512 0.29768,-0.427569 0.84431,-0.67112 0.55205,-0.243552 1.32601,-0.330148 0.77395,-0.0866 1.66156,-0.129894 v -0.156955 q 0,-0.346385 -0.12448,-0.573699 -0.11907,-0.227315 -0.34639,-0.357209 -0.21649,-0.124482 -0.51957,-0.16778 -0.30309,-0.0433 -0.63324,-0.0433 -0.4005,0 -0.89302,0.108245 -0.49251,0.102833 -1.0175,0.303086 h -0.0541 V 86.64138 q 0.29768,-0.08118 0.86055,-0.178604 0.56288,-0.09742 1.10951,-0.09742 0.63865,0 1.10952,0.108245 0.47628,0.102833 0.82266,0.357209 0.34097,0.248964 0.51958,0.644059 0.1786,0.395094 0.1786,0.979618 z m -1.01209,-1.48837 v -1.683212 q -0.46545,0.02706 -1.09869,0.08118 -0.62782,0.05412 -0.99585,0.156955 -0.4384,0.124482 -0.70901,0.389683 -0.27061,0.259788 -0.27061,0.71983 0,0.519576 0.31391,0.784777 0.31391,0.259788 0.95797,0.259788 0.53581,0 0.97962,-0.205666 0.4438,-0.211078 0.82266,-0.503339 z m 6.22409,-5.94807 h -0.0541 q -0.16778,-0.04871 -0.43839,-0.09742 -0.27062,-0.05412 -0.47628,-0.05412 -0.65488,0 -0.95256,0.292262 -0.29226,0.28685 -0.29226,1.044566 v 0.205665 h 1.83476 v 0.855137 h -1.80229 v 5.190353 h -1.0175 v -5.190353 h -0.68736 v -0.855137 h 0.68736 v -0.200253 q 0,-1.077039 0.53581,-1.650738 0.53582,-0.579112 1.54791,-0.579112 0.34097,0 0.61158,0.03247 0.27603,0.03247 0.50334,0.07577 z m 3.78317,7.382317 q -0.28685,0.07577 -0.62783,0.124482 -0.33556,0.04871 -0.60076,0.04871 -0.92549,0 -1.40718,-0.497928 -0.48169,-0.497927 -0.48169,-1.596615 v -3.21488 h -0.68736 v -0.855137 h 0.68736 v -1.737331 h 1.0175 v 1.737334 h 2.09996 v 0.855137 h -2.09996 v 2.754838 q 0,0.476278 0.0217,0.746891 0.0217,0.265201 0.15154,0.497928 0.11907,0.21649 0.32474,0.319323 0.21108,0.09742 0.63864,0.09742 0.24897,0 0.51958,-0.07036 0.27061,-0.07577 0.38968,-0.124482 h 0.0541 z m 6.28905,-2.863083 h -4.45428 q 0,0.557462 0.16778,0.974206 0.16778,0.411332 0.46004,0.676532 0.28144,0.259788 0.66571,0.389683 0.38968,0.129894 0.85513,0.129894 0.617,0 1.23941,-0.243552 0.62782,-0.248964 0.89302,-0.487103 h 0.0541 v 1.109513 q -0.51416,0.21649 -1.04997,0.362621 -0.53582,0.146131 -1.12575,0.146131 -1.50461,0 -2.34892,-0.811839 -0.84431,-0.81725 -0.84431,-2.316445 0,-1.482958 0.80642,-2.354332 0.81184,-0.871373 2.13243,-0.871373 1.22317,0 1.88347,0.714418 0.6657,0.714418 0.6657,2.029596 z m -0.99044,-0.779365 q -0.005,-0.801014 -0.40592,-1.239406 -0.39509,-0.438393 -1.20693,-0.438393 -0.81725,0 -1.30436,0.481691 -0.48169,0.481691 -0.54663,1.196108 z m 7.58797,3.696571 h -1.01751 v -3.442195 q 0,-0.416743 -0.0487,-0.779365 -0.0487,-0.368033 -0.1786,-0.573699 -0.13531,-0.227314 -0.38968,-0.33556 -0.25438,-0.113657 -0.6603,-0.113657 -0.41674,0 -0.87137,0.205666 -0.45463,0.205666 -0.87138,0.524989 v 4.513821 h -1.0175 v -6.04549 h 1.0175 v 0.67112 q 0.47628,-0.395095 0.98503,-0.616997 0.50876,-0.221903 1.04457,-0.221903 0.97962,0 1.49378,0.589936 0.51417,0.589936 0.51417,1.699449 z m 6.94933,-7.057582 h -1.1474 v -1.05539 h 1.1474 z m -0.065,7.057582 h -1.0175 v -6.04549 h 1.0175 z m 7.06841,0 h -1.01751 v -3.442195 q 0,-0.416743 -0.0487,-0.779365 -0.0487,-0.368033 -0.1786,-0.573699 -0.13531,-0.227314 -0.38969,-0.33556 -0.25437,-0.113657 -0.66029,-0.113657 -0.41674,0 -0.87137,0.205666 -0.45463,0.205666 -0.87138,0.524989 v 4.513821 h -1.0175 v -6.04549 h 1.0175 v 0.67112 q 0.47628,-0.395095 0.98503,-0.616997 0.50876,-0.221903 1.04457,-0.221903 0.97962,0 1.49378,0.589936 0.51417,0.589936 0.51417,1.699449 z m 12.08556,0 h -1.32601 l -3.82105,-7.209125 v 7.209125 h -1.00127 v -8.058849 h 1.66157 l 3.48549,6.581303 v -6.581303 h 1.00127 z m 8.81117,0 h -1.39095 l -2.6953,-3.204055 h -1.51002 v 3.204055 h -1.07163 v -8.058849 h 2.25691 q 0.73066,0 1.21776,0.09742 0.4871,0.09201 0.87678,0.33556 0.4384,0.276025 0.68195,0.698181 0.24896,0.416743 0.24896,1.060802 0,0.871373 -0.43839,1.461309 -0.43839,0.584523 -1.20693,0.882197 z m -2.50587,-5.791112 q 0,-0.346384 -0.12448,-0.611585 -0.11907,-0.270612 -0.4005,-0.454629 -0.23273,-0.156956 -0.55205,-0.21649 -0.31933,-0.06495 -0.75231,-0.06495 h -1.26105 v 3.041687 h 1.08245 q 0.50875,0 0.88761,-0.0866 0.37886,-0.09201 0.64406,-0.33556 0.24355,-0.227314 0.35721,-0.519576 0.11906,-0.297674 0.11906,-0.752304 z m 12.92448,-2.267735 -2.09454,8.058849 h -1.20693 l -1.69404,-6.689548 -1.65615,6.689548 h -1.17987 l -2.13243,-8.058849 h 1.09869 l 1.69403,6.700373 1.66698,-6.700373 h 1.08786 l 1.68321,6.76532 1.68321,-6.76532 z"
     id="text9"
     style="font-size:11.0843px;font-family:Verdana;-inkscape-font-specification:'Verdana, Normal';text-align:center;text-anchor:middle;stroke:#000000;stroke-width:0"
     aria-label="Dachverband der Stadt- und Kreisschulpflegschaften in NRW" />
</svg>
